<svg xmlns="http://www.w3.org/2000/svg" version="1.1" xmlns:xlink="http://www.w3.org/1999/xlink" width="512" height="512" x="0" y="0" viewBox="0 0 128 128" style="enable-background:new 0 0 512 512" xml:space="preserve"><g><path d="m45.108 37.591-2.042 2.525a11.629 11.629 0 0 0 6.61 3.035v1.9h2.581v-1.815c4.113-.284 6.468-2.667 6.468-5.929 0-3.46-2.582-4.793-6.468-5.673V26.3a9.279 9.279 0 0 1 4.028 2.128l1.929-2.61a10.554 10.554 0 0 0-5.957-2.638v-1.758h-2.581v1.731c-3.489.425-5.844 2.78-5.844 5.843 0 3.347 2.355 4.6 5.844 5.5v5.534a9.7 9.7 0 0 1-4.568-2.439zm7.149-2.44c2.014.6 2.922 1.192 2.922 2.5 0 1.248-.993 2.326-2.922 2.553zm-4.851-6.467a2.677 2.677 0 0 1 2.27-2.439v4.708c-1.532-.538-2.27-1.134-2.27-2.269zM51.064 104.885h-29.7a1.75 1.75 0 1 0 0 3.5h29.7a1.75 1.75 0 1 0 0-3.5z" fill="#ffffff" opacity="1" data-original="#000000"></path><path d="M117.69 49.5H97.572V6.307a1.75 1.75 0 0 0-1.75-1.75H24.841a.4.4 0 0 0-.091.021 1.738 1.738 0 0 0-1.15.492L5.069 23.6a1.732 1.732 0 0 0-.492 1.148.372.372 0 0 0-.02.089v96.852a1.75 1.75 0 0 0 1.75 1.75H117.69a5.76 5.76 0 0 0 5.753-5.753V55.257a5.759 5.759 0 0 0-5.753-5.757zm-94.6-38.972v12.563H10.531zM8.057 26.591h16.784a1.75 1.75 0 0 0 1.75-1.75V8.057h67.481V49.5H73.954a5.759 5.759 0 0 0-5.754 5.757v7.022H21.365a1.75 1.75 0 1 0 0 3.5H68.2v10.7H21.365a1.75 1.75 0 1 0 0 3.5H68.2v10.7H21.365a1.75 1.75 0 1 0 0 3.5H68.2v23.511a5.717 5.717 0 0 0 .461 2.253H8.057zm111.886 91.1a2.255 2.255 0 0 1-2.253 2.253H73.954a2.255 2.255 0 0 1-2.254-2.254V55.257A2.256 2.256 0 0 1 73.954 53h43.736a2.255 2.255 0 0 1 2.253 2.253z" fill="#ffffff" opacity="1" data-original="#000000"></path><path d="M114.664 56.542H76.979a1.75 1.75 0 0 0-1.75 1.75v14.2a1.751 1.751 0 0 0 1.75 1.75h37.685a1.75 1.75 0 0 0 1.75-1.75v-14.2a1.749 1.749 0 0 0-1.75-1.75zm-1.75 14.2H78.729v-10.7h34.185zM99.825 77.772h-8.007a1.751 1.751 0 0 0-1.75 1.75v7.029a1.751 1.751 0 0 0 1.75 1.75h8.007a1.75 1.75 0 0 0 1.75-1.75v-7.029a1.75 1.75 0 0 0-1.75-1.75zm-1.75 7.028h-4.507v-3.528h4.507zM114.664 77.772h-8.007a1.75 1.75 0 0 0-1.75 1.75v7.029a1.75 1.75 0 0 0 1.75 1.75h8.007a1.75 1.75 0 0 0 1.75-1.75v-7.029a1.75 1.75 0 0 0-1.75-1.75zm-1.75 7.029h-4.507v-3.529h4.507zM84.986 77.772h-8.007a1.751 1.751 0 0 0-1.75 1.75v7.029a1.751 1.751 0 0 0 1.75 1.75h8.007a1.75 1.75 0 0 0 1.75-1.75v-7.029a1.75 1.75 0 0 0-1.75-1.75zm-1.75 7.028h-4.507v-3.528h4.507zM99.825 91.829h-8.007a1.751 1.751 0 0 0-1.75 1.75v7.028a1.75 1.75 0 0 0 1.75 1.75h8.007a1.749 1.749 0 0 0 1.75-1.75v-7.028a1.75 1.75 0 0 0-1.75-1.75zm-1.75 7.028h-4.507v-3.528h4.507zM114.664 91.829h-8.007a1.75 1.75 0 0 0-1.75 1.75v21.086a1.75 1.75 0 0 0 1.75 1.75h8.007a1.75 1.75 0 0 0 1.75-1.75V93.579a1.75 1.75 0 0 0-1.75-1.75zm-1.75 21.086h-4.507V95.329h4.507zM84.986 91.829h-8.007a1.751 1.751 0 0 0-1.75 1.75v7.028a1.75 1.75 0 0 0 1.75 1.75h8.007a1.749 1.749 0 0 0 1.75-1.75v-7.028a1.75 1.75 0 0 0-1.75-1.75zm-1.75 7.028h-4.507v-3.528h4.507zM99.825 105.886h-8.007a1.751 1.751 0 0 0-1.75 1.75v7.029a1.751 1.751 0 0 0 1.75 1.75h8.007a1.75 1.75 0 0 0 1.75-1.75v-7.029a1.75 1.75 0 0 0-1.75-1.75zm-1.75 7.029h-4.507v-3.529h4.507zM84.986 105.886h-8.007a1.751 1.751 0 0 0-1.75 1.75v7.029a1.751 1.751 0 0 0 1.75 1.75h8.007a1.75 1.75 0 0 0 1.75-1.75v-7.029a1.75 1.75 0 0 0-1.75-1.75zm-1.75 7.029h-4.507v-3.529h4.507z" fill="#ffffff" opacity="1" data-original="#000000"></path></g></svg>