<svg xmlns="http://www.w3.org/2000/svg" version="1.1" xmlns:xlink="http://www.w3.org/1999/xlink" width="512" height="512" x="0" y="0" viewBox="0 0 487.1 487.1" style="enable-background:new 0 0 512 512" xml:space="preserve"><g><path d="M336.05 251.7h-183.3c-7.5 0-13.5 6-13.5 13.5s6 13.5 13.5 13.5h183.3c7.5 0 13.5-6 13.5-13.5s-6-13.5-13.5-13.5zM151.05 203.4h183.3c7.5 0 13.5-6 13.5-13.5s-6-13.5-13.5-13.5h-183.3c-7.5 0-13.5 6-13.5 13.5s6 13.5 13.5 13.5zM336.05 326.9h-183.3c-7.5 0-13.5 6-13.5 13.5s6 13.5 13.5 13.5h183.3c7.5 0 13.5-6 13.5-13.5s-6-13.5-13.5-13.5z" fill="#ffffff" opacity="1" data-original="#000000"></path><path d="m433.05 110.4-111-106.6c-2.5-2.4-5.9-3.8-9.4-3.8h-203.1c-32.9 0-59.7 26.8-59.7 59.7v367.7c0 32.9 26.8 59.7 59.7 59.7h268c32.9 0 59.7-26.8 59.7-59.7V120.2c-.1-3.7-1.6-7.2-4.2-9.8zm-106.8-65.2 63.9 61.5h-31.3c-18 0-32.7-14.6-32.7-32.7V45.2h.1zm83.9 382.2c0 18-14.6 32.7-32.7 32.7h-267.9c-18 0-32.7-14.6-32.7-32.7V59.6c0-18 14.6-32.7 32.7-32.7h189.6v47c0 32.9 26.8 59.7 59.7 59.7h51.3v293.8z" fill="#ffffff" opacity="1" data-original="#000000"></path></g></svg>