<svg xmlns="http://www.w3.org/2000/svg" version="1.1" xmlns:xlink="http://www.w3.org/1999/xlink" width="512" height="512" x="0" y="0" viewBox="0 0 322 322" style="enable-background:new 0 0 512 512" xml:space="preserve" class=""><g><path d="M161.3 0C72.5 0 0 72.5 0 161.3 0 250 72.5 322 161.3 322 250 322 322 250 322 161.3 322 72.5 250 0 161.3 0zm0 294.1c-74.1 0-133.4-59.4-133.4-132.9-.1-74 59.3-133.4 133.4-133.4 73.5 0 132.9 59.4 132.9 133.4 0 73.5-59.4 132.9-132.9 132.9z" fill="#5dc560" opacity="1" data-original="#000000"></path><path d="M235.9 89.3c-4.2 0-8.4 2.1-11 5.3L135 198l-38.3-38.3c-13.1-13.1-33.1 6.8-20 20l48.9 48.9c5.8 5.8 15.2 5.3 20.5-.5l100.3-115c7.8-9.1 1.5-23.8-10.5-23.8z" fill="#5dc560" opacity="1" data-original="#000000"></path></g></svg>